<svg width="30" height="36" xmlns="http://www.w3.org/2000/svg"><g id="Icons/Awards/Shield" stroke="none" stroke-width="1" fill="none" fill-rule="evenodd"><g id="img-award-2" fill="#000" fill-rule="nonzero"><path d="M26.944 5.732s-2.474-.265-5.7-1.45C17.401 2.872 14.755.4 14.755.4S12.11 2.871 8.266 4.283c-3.225 1.184-5.7 1.449-5.7 1.449C2.757 8.289.395 9.59.395 9.59s1.37 2.991 1.37 8.41c0 5.419 1.606 9.104 4.629 11.878 3.024 2.774 8.362 5.722 8.362 5.722s5.338-2.948 8.362-5.722c3.024-2.774 4.63-6.46 4.63-11.878 0-5.419 1.37-8.41 1.37-8.41s-2.362-1.3-2.173-3.858Z" id="Shape"/></g></g></svg>