<svg width="32" height="32" xmlns="http://www.w3.org/2000/svg"><g id="Icons/Zoom" stroke="none" stroke-width="1" fill="none" fill-rule="evenodd"><g id="search-plus" fill="#000" fill-rule="nonzero"><path d="M18.963 11.977v1.996a.75.75 0 0 1-.749.748h-3.493v3.493a.75.75 0 0 1-.748.749h-1.996a.75.75 0 0 1-.749-.749v-3.493H7.735a.75.75 0 0 1-.749-.748v-1.996a.75.75 0 0 1 .749-.749h3.493V7.735a.75.75 0 0 1 .749-.749h1.996a.75.75 0 0 1 .748.749v3.493h3.493a.75.75 0 0 1 .749.749Zm12.538 17.759L29.736 31.5a1.49 1.49 0 0 1-2.115 0l-6.225-6.22a1.496 1.496 0 0 1-.437-1.06v-1.016a12.911 12.911 0 0 1-7.984 2.744C5.807 25.95 0 20.142 0 12.975 0 5.807 5.807 0 12.975 0c7.167 0 12.974 5.807 12.974 12.975 0 3.013-1.023 5.782-2.744 7.984h1.016c.4 0 .78.156 1.06.437l6.22 6.219a1.51 1.51 0 0 1 0 2.12ZM21.458 12.975a8.476 8.476 0 0 0-8.483-8.484 8.476 8.476 0 0 0-8.484 8.484 8.476 8.476 0 0 0 8.484 8.483 8.476 8.476 0 0 0 8.483-8.483Z" id="Shape"/></g></g></svg>