<svg width="60" height="60" xmlns="http://www.w3.org/2000/svg"><g id="Buttons/Slider-Controls" stroke="none" stroke-width="1" fill="none" fill-rule="evenodd"><g id="img-close"><circle id="Oval-3-Copy" fill="#000" fill-rule="nonzero" cx="30" cy="30" r="30"/><text id="Slide" font-family="HelveticaNeue-Bold, Helvetica Neue" font-size="12" font-weight="bold" letter-spacing="-.3" fill="#FFF">
                <tspan x="17.15" y="43">Slide</tspan>
            </text></g><g id="Icons/Chevron/Default/Left" transform="translate(14 13)" fill="#FFF"><g id="chevron-left" transform="translate(3.188)"><path d="M.292 7.841 7.835.298a.932.932 0 0 1 1.317 0l.88.88a.932.932 0 0 1 .002 1.316L4.056 8.5l5.977 6.006a.931.931 0 0 1-.001 1.316l-.88.88a.932.932 0 0 1-1.317 0L.292 9.159a.932.932 0 0 1 0-1.318Z" id="Path" fill-rule="nonzero"/></g></g><g id="Icons/Chevron/Default/Right" transform="translate(29 13)" fill="#FFF"><g id="chevron-right" transform="translate(3.188)"><path d="M10.032 9.159 2.49 16.702a.931.931 0 0 1-1.317 0l-.88-.88a.931.931 0 0 1-.002-1.316L6.268 8.5.29 2.494a.931.931 0 0 1 .002-1.316l.88-.88a.931.931 0 0 1 1.317 0l7.543 7.543a.932.932 0 0 1 0 1.318Z" id="Path" fill-rule="nonzero"/></g></g></g></svg>