<svg width="32" height="32" xmlns="http://www.w3.org/2000/svg"><g id="Icons/Location/Finder" stroke="none" stroke-width="1" fill="none" fill-rule="evenodd"><g id="crosshairs" fill="#000" fill-rule="nonzero"><path d="M31.25 14.01h-1.898C28.482 8.183 23.855 3.577 18 2.712V.823a.748.748 0 0 0-.75-.746h-2.5a.748.748 0 0 0-.75.746v1.889C8.145 3.577 3.517 8.183 2.648 14.01H.75a.748.748 0 0 0-.75.746v2.488c0 .412.336.746.75.746h1.898C3.518 23.817 8.145 28.423 14 29.288v1.889c0 .412.336.746.75.746h2.5c.414 0 .75-.334.75-.746v-1.889c5.855-.865 10.483-5.471 11.352-11.298h1.898c.414 0 .75-.334.75-.746v-2.488a.748.748 0 0 0-.75-.746ZM18 25.245v-2.527a.748.748 0 0 0-.75-.747h-2.5a.748.748 0 0 0-.75.747v2.527c-3.636-.771-6.514-3.632-7.29-7.255h2.54c.414 0 .75-.334.75-.746v-2.488a.748.748 0 0 0-.75-.746H6.71c.776-3.619 3.65-6.483 7.29-7.255v2.527c0 .413.336.747.75.747h2.5c.414 0 .75-.334.75-.747V6.755c3.636.771 6.514 3.632 7.29 7.255h-2.54a.748.748 0 0 0-.75.746v2.488c0 .412.336.746.75.746h2.54c-.775 3.619-3.65 6.483-7.29 7.255ZM18 16c0 1.1-.895 1.99-2 1.99s-2-.89-2-1.99.895-1.99 2-1.99 2 .89 2 1.99Z" id="Shape"/></g></g></svg>