<svg width="32" height="32" xmlns="http://www.w3.org/2000/svg"><g id="Icons/Password/Show" stroke="none" stroke-width="1" fill="none" fill-rule="evenodd"><g id="Eye-Icon" transform="translate(1 8)" fill="#000" fill-rule="nonzero"><path d="M15.123 14.555c6.35 0 10.644-4.172 12.095-5.823-1.4-1.65-5.57-5.792-12.095-5.792-6.56 0-10.707 4.14-12.098 5.79 1.448 1.65 5.746 5.825 12.098 5.825ZM1.059 9.407l-.454-.643.438-.653c.2-.3 5.007-7.333 14.079-7.333C24.193.778 29 7.81 29.2 8.11l.437.653-.454.643c-.21.299-5.256 7.31-14.062 7.31S1.269 9.705 1.059 9.406Z" id="Fill-1"/><path d="M15.122 7.04c-1.243 0-2.253.765-2.253 1.707 0 .942 1.01 1.708 2.253 1.708 1.242 0 2.252-.766 2.252-1.708s-1.01-1.708-2.252-1.708m0 5.693c-2.485 0-4.505-1.787-4.505-3.985 0-2.196 2.02-3.985 4.505-3.985 2.483 0 4.505 1.789 4.505 3.985 0 2.198-2.022 3.985-4.505 3.985" id="Fill-4"/></g></g></svg>