<svg width="48" height="48" xmlns="http://www.w3.org/2000/svg"><g id="Icons/Recipes/Chilltime" stroke="none" stroke-width="1" fill="none" fill-rule="evenodd"><g id="chill-time2" transform="translate(12 4)" fill="#000" fill-rule="nonzero"><path d="M11 8.5a.5.5 0 1 1-1 0 .5.5 0 0 1 1 0m4 0a.5.5 0 1 1-1 0 .5.5 0 0 1 1 0" id="Path"/><path d="M2.083 1.368a.69.69 0 0 0-.694.685v34.894a.69.69 0 0 0 .694.685h20.834a.69.69 0 0 0 .694-.685V2.053a.69.69 0 0 0-.694-.685H2.083ZM22.917 39H2.083C.935 39 0 38.08 0 36.947V2.053C0 .92.935 0 2.083 0h20.834C24.065 0 25 .92 25 2.053v34.894C25 38.08 24.065 39 22.917 39Z" id="Shape"/><path d="M3.375 39.8h19.25v-.6H3.375v.6ZM23.313 41H2.688c-.38 0-.688-.268-.688-.6v-1.8c0-.332.307-.6.688-.6h20.625c.38 0 .687.268.687.6v1.8c0 .332-.307.6-.688.6Z" id="Shape"/><path d="M5.2 30H2.8c-.442 0-.8-.31-.8-.694V5.694C2 5.31 2.358 5 2.8 5h2.4c.442 0 .8.31.8.694 0 .384-.358.695-.8.695H3.6V28.61h1.6c.442 0 .8.31.8.695 0 .384-.358.694-.8.694" id="Path"/><path d="M11.2 5.667h3.6V4.333h-3.6v1.334ZM15.4 7h-4.8c-.332 0-.6-.298-.6-.667V3.667c0-.369.268-.667.6-.667h4.8c.332 0 .6.298.6.667v2.666c0 .369-.268.667-.6.667Z" id="Shape"/></g></g></svg>