<svg width="48" height="48" xmlns="http://www.w3.org/2000/svg"><g id="Icons/Recipes/Totaltime" stroke="none" stroke-width="1" fill="none" fill-rule="evenodd"><g id="time" transform="translate(7 8)" fill="#000" fill-rule="nonzero"><path d="M32.797 8.019c-2.155-3.665-5.712-6.33-9.876-7.4a.897.897 0 0 1-.339-.087A16.41 16.41 0 0 0 9.106 2.909a1.44 1.44 0 0 0 .227 2.503 1.495 1.495 0 0 0 1.47-.13 13.434 13.434 0 0 1 11.026-1.946.887.887 0 0 1 .339.088c7 1.81 11.237 8.804 9.52 15.722-1.716 6.917-8.75 11.206-15.812 9.64C8.814 27.218 4.33 20.374 5.8 13.401l.384.663a1.488 1.488 0 0 0 2.01.542c.707-.396.954-1.28.553-1.977L6.574 8.876a1.471 1.471 0 0 0-.89-.682 1.496 1.496 0 0 0-1.12.139L.745 10.469A1.447 1.447 0 0 0 0 11.721c-.003.519.275 1 .73 1.262a1.496 1.496 0 0 0 1.475.008l.746-.418c-1.58 6.973 1.744 14.13 8.138 17.518s14.299 2.182 19.349-2.952c5.05-5.135 6.014-12.946 2.36-19.12Z" id="Path"/><path d="M18.58 7C17.708 7 17 7.647 17 8.445v7.6c0 .095.01.19.031.283.01.043.027.082.04.124a.806.806 0 0 0 .13.284c.022.037.04.075.065.11.058.08.124.154.198.221l3.84 3.511a1.687 1.687 0 0 0 2.233-.001 1.359 1.359 0 0 0 .002-2.042l-3.378-3.088V8.445c0-.798-.708-1.445-1.58-1.445Z" id="Path"/></g></g></svg>