<svg width="48" height="48" xmlns="http://www.w3.org/2000/svg"><g id="Icons/Recipes/Serves" stroke="none" stroke-width="1" fill="none" fill-rule="evenodd"><path d="M36 43H12v-6.5c0-3.301 2.473-6.034 5.663-6.446a3.983 3.983 0 0 0 .559 2.383l2.19 3.655c.338.564.814 1.04 1.375 1.375a3.958 3.958 0 0 0 3.029.449 3.967 3.967 0 0 0 2.458-1.824l2.191-3.655a3.98 3.98 0 0 0 .556-2.416A6.508 6.508 0 0 1 36 36.5V43ZM14.034 29.281c-.042.027-.084.05-.125.076.041-.026.083-.049.125-.076ZM15 16c0-1.833.553-3.537 1.498-4.96a25.576 25.576 0 0 0 1.951 1.713A6.954 6.954 0 0 0 17 17v3a6.98 6.98 0 0 0 2.669 5.488c-.016-.011-.034-.02-.049-.032V28H18.5c-1.264 0-2.46.285-3.54.782.014-.007.026-.015.04-.021V16Zm12.056 10.288-.106.051.106-.051ZM19 17c0-1.157.421-2.202 1.085-3.048 2.741 1.829 5.722 2.965 8.915 3.385V20c0 2.757-2.243 5-5 5s-5-2.243-5-5v-3Zm.695 13h.02a2 2 0 0 0 2-2v-1.389c-.007-.003-.013-.007-.02-.009A6.958 6.958 0 0 0 24 27c.664 0 1.305-.099 1.914-.272l-.009.002V28a2 2 0 0 0 2 2h.087c.094.478.017.977-.242 1.409l-2.191 3.655a1.99 1.99 0 0 1-1.229.913 2.002 2.002 0 0 1-2.202-.913l-2.19-3.655A1.977 1.977 0 0 1 19.695 30Zm14.397-.642c-.041-.027-.085-.051-.127-.077.042.026.086.05.127.077ZM33 16v12.761l.041.022A8.425 8.425 0 0 0 29.5 28H28v-2.26c-.007.005-.016.008-.022.013A6.995 6.995 0 0 0 31 20v-2.565a.995.995 0 0 0 .651-.877 1 1 0 0 0-.941-1.055c-4.825-.272-9.166-2.281-12.902-5.974-.008-.008-.019-.01-.028-.018A8.963 8.963 0 0 1 24 7c4.963 0 9 4.038 9 9Zm1.971 14.005c.009.008.02.014.029.021V16c0-6.065-4.935-11-11-11S13 9.935 13 16v14.026c.009-.007.02-.013.028-.02A8.477 8.477 0 0 0 10 36.5V43c0 1.103.897 2 2 2h24c1.103 0 2-.897 2-2v-6.5a8.482 8.482 0 0 0-3.029-6.495Z" id="Recipe-Serves-Icon" fill="#000" fill-rule="nonzero"/></g></svg>