<svg width="48" height="48" xmlns="http://www.w3.org/2000/svg"><g id="Icons/Recipes/Waittime" stroke="none" stroke-width="1" fill="none" fill-rule="evenodd"><g id="Wait-Time-Icon" transform="translate(6 4)" fill="#000" fill-rule="nonzero"><path d="M16.24 16.857h4.52a2.33 2.33 0 0 0-2.26-1.714c-1.086 0-2 .73-2.26 1.714M21.417 18h-5.834a.577.577 0 0 1-.583-.571C15 15.538 16.57 14 18.5 14s3.5 1.538 3.5 3.429a.578.578 0 0 1-.583.571" id="Shape" stroke="#000" stroke-width=".5"/><path d="M10.197 18.21c-4.213 0-5.997 7.794-5.997 10.895 0 1.832 0 4.325.495 6.37.539 2.23 1.518 3.314 2.995 3.314h20.62c1.477 0 2.456-1.084 2.995-3.315.495-2.044.495-4.537.495-6.358 0-3.111-1.784-10.905-5.997-10.905H10.197ZM28.31 40H7.69c-2.081 0-3.482-1.426-4.162-4.238C3 33.576 3 30.998 3 29.116 3 25.543 5.07 17 10.197 17h15.606C30.93 17 33 25.543 33 29.105c0 1.893 0 4.47-.528 6.657-.68 2.812-2.08 4.238-4.162 4.238Z" id="Shape" stroke="#000" stroke-width=".5"/><path d="M30.402 22H5.598c-.33 0-.598-.224-.598-.5s.268-.5.598-.5h24.804c.33 0 .598.224.598.5s-.268.5-.598.5M4.549 36c-.332 0-.349-.224-.349-.5s-.93-.5-.598-.5h27.796c.332 0 .602.224.602.5s-.27.5-.602.5H4.548Z" id="Path" stroke="#000" stroke-width=".5"/><path d="M16.448 28 18 29.552 19.552 28 18 26.45 16.448 28ZM18 31a.598.598 0 0 1-.424-.176l-2.4-2.4a.6.6 0 0 1 0-.848l2.4-2.4a.6.6 0 0 1 .848 0l2.4 2.4a.6.6 0 0 1 0 .848l-2.4 2.4A.598.598 0 0 1 18 31Z" id="Shape" stroke="#000" stroke-width=".5"/><path d="M3.725 29a.64.64 0 0 1-.103-.008C1.523 28.666 0 26.998 0 25.026 0 22.806 1.949 21 4.345 21c.403 0 .81.054 1.207.16.33.088.519.408.423.712-.095.306-.44.48-.768.393a3.33 3.33 0 0 0-.862-.115c-1.711 0-3.104 1.29-3.104 2.876 0 1.408 1.088 2.599 2.587 2.832.337.052.566.349.509.662-.051.281-.314.48-.612.48m28.548 0c-.298 0-.56-.2-.61-.48-.057-.314.171-.61.508-.662 1.5-.232 2.589-1.423 2.589-2.832 0-1.586-1.392-2.876-3.102-2.876-.287 0-.578.04-.865.116-.327.088-.673-.087-.768-.392-.096-.305.093-.624.423-.712a4.65 4.65 0 0 1 1.21-.162C34.052 21 36 22.806 36 25.026c0 1.973-1.524 3.642-3.624 3.966a.632.632 0 0 1-.103.008" id="Path" stroke="#000" stroke-width=".5"/><g id="time" transform="translate(21)"><path d="M14.056 3.508A6.91 6.91 0 0 0 9.823.271a.378.378 0 0 1-.145-.038 6.915 6.915 0 0 0-5.775 1.04A.636.636 0 0 0 4 2.368a.63.63 0 0 0 .63-.057 5.661 5.661 0 0 1 4.725-.851c.05.003.1.016.145.038 3.001.792 4.816 3.852 4.08 6.878-.735 3.027-3.75 4.903-6.776 4.218-3.027-.686-4.948-3.68-4.318-6.73l.164.29a.63.63 0 0 0 .862.236.636.636 0 0 0 .237-.864l-.931-1.643a.632.632 0 0 0-.862-.238L.32 4.58a.635.635 0 0 0 .625 1.103l.32-.182a6.99 6.99 0 0 0 3.487 7.664 6.93 6.93 0 0 0 8.293-1.292 7.002 7.002 0 0 0 1.011-8.365Z" id="Path"/><path d="M7.677 3C7.303 3 7 3.277 7 3.62v3.256c0 .041.005.082.013.122.004.018.012.035.018.053.01.043.028.084.055.121.01.016.017.033.028.048a.637.637 0 0 0 .085.095l1.646 1.504a.723.723 0 0 0 .957 0 .582.582 0 0 0 0-.875L8.355 6.62v-3c0-.343-.304-.62-.678-.62Z" id="Path"/></g></g></g></svg>