<svg width="48" height="48" xmlns="http://www.w3.org/2000/svg"><g id="Icons/Recipes/Brewtime" stroke="none" stroke-width="1" fill="none" fill-rule="evenodd"><g id="brew-time" transform="translate(9 6)" fill="#000" fill-rule="nonzero"><path d="M5.993 6.562H16.92c.448.074.783.472.803.952v.076c-.02.48-.355.878-.803.952H8.496c-1.667.075-2.987 1.521-3 3.29 0 .645.494 1.168 1.103 1.168.61 0 1.103-.523 1.103-1.169.018-.48.354-.879.802-.952h8.424c1.668-.074 2.987-1.52 3-3.289v-.076c-.02-1.767-1.342-3.207-3.008-3.277H5.993c-.447-.071-.784-.469-.802-.948.018-.48.354-.879.802-.952h13.904c.61 0 1.103-.523 1.103-1.168C21 .523 20.506 0 19.897 0H5.993C4.323.064 3 1.517 3 3.287s1.323 3.224 2.993 3.287v-.012Z" id="Path"/><path d="M23.85 18.414v-2.307c0-.611-.503-1.107-1.124-1.107H1.124C.504 15 0 15.496 0 16.107V31.17C0 33.837 2.197 36 4.907 36H18.96c1.301 0 2.55-.509 3.47-1.415a4.794 4.794 0 0 0 1.437-3.416v-.665c3.387 0 6.133-2.703 6.133-6.039 0-3.335-2.746-6.039-6.133-6.039l-.017-.012ZM21.601 31.17c-.002 1.435-1.183 2.598-2.64 2.6H4.865c-1.457-.002-2.638-1.165-2.638-2.6V17.214H21.6V31.17Zm2.25-2.895v-7.65c2.047.131 3.64 1.805 3.64 3.825 0 2.02-1.593 3.694-3.64 3.825Z" id="Shape"/></g></g></svg>