<svg width="48" height="48" xmlns="http://www.w3.org/2000/svg"><g id="Icons/Recipes/Oventime" stroke="none" stroke-width="1" fill="none" fill-rule="evenodd"><path d="M34.105 6c.93 0 1.684.75 1.684 1.674v2.512h2.527c.93 0 1.684.75 1.684 1.674v28.466A1.68 1.68 0 0 1 38.316 42H9.684A1.68 1.68 0 0 1 8 40.326V11.86a1.68 1.68 0 0 1 1.684-1.674h2.526V7.674A1.68 1.68 0 0 1 13.896 6h20.21Zm4.21 31.814H9.686v2.512h28.63v-2.512Zm0-18.419H9.686V36.14h28.63V19.395Zm-4.21 1.675c.93 0 1.684.75 1.684 1.674v10.047a1.68 1.68 0 0 1-1.684 1.674h-20.21a1.68 1.68 0 0 1-1.684-1.674V22.744a1.68 1.68 0 0 1 1.684-1.674h20.21Zm0 1.674h-20.21v10.047h20.21V22.744Zm-13.276 1.95c.273.3.465.66.558 1.041a2.828 2.828 0 0 1-.031 1.507 3.267 3.267 0 0 1-.407.89c-.093.13-.176.264-.249.404-.137.427-.067.887.197 1.267a.834.834 0 0 1-.214 1.165.845.845 0 0 1-1.171-.213 3.1 3.1 0 0 1-.445-2.633l.061-.19.039-.092c.118-.238.257-.467.385-.642.08-.127.142-.264.186-.422.063-.207.068-.424.014-.64a.732.732 0 0 0-.172-.319.834.834 0 0 1 .06-1.182.846.846 0 0 1 1.19.06Zm6.737 0c.273.3.465.66.558 1.041a2.828 2.828 0 0 1-.031 1.507 3.267 3.267 0 0 1-.407.89 3.25 3.25 0 0 0-.249.404c-.137.427-.067.887.197 1.267a.834.834 0 0 1-.214 1.165.845.845 0 0 1-1.171-.213 3.1 3.1 0 0 1-.445-2.633l.061-.19.039-.092c.118-.238.257-.467.385-.642.08-.127.142-.264.186-.422.063-.207.068-.424.013-.64a.732.732 0 0 0-.172-.319.834.834 0 0 1 .06-1.182.846.846 0 0 1 1.19.06Zm-4.558-.06a.846.846 0 0 1 1.19.06c.272.3.465.66.557 1.041a2.828 2.828 0 0 1-.03 1.507 3.297 3.297 0 0 1-.407.89c-.094.13-.177.264-.25.404-.137.427-.067.887.198 1.267a.834.834 0 0 1-.214 1.165.845.845 0 0 1-1.172-.213 3.098 3.098 0 0 1-.383-2.824l.038-.09c.119-.239.257-.468.386-.643a1.6 1.6 0 0 0 .186-.422c.062-.207.068-.424.013-.64a.732.732 0 0 0-.172-.319.834.834 0 0 1 .06-1.182ZM38.316 11.86H9.684v5.86h28.632v-5.86Zm-25.263 1.256a1.26 1.26 0 0 1 1.263 1.256 1.26 1.26 0 0 1-1.263 1.256 1.26 1.26 0 0 1-1.264-1.256 1.26 1.26 0 0 1 1.264-1.256Zm3.368 0a1.26 1.26 0 0 1 1.263 1.256 1.26 1.26 0 0 1-1.263 1.256 1.26 1.26 0 0 1-1.263-1.256 1.26 1.26 0 0 1 1.263-1.256Zm3.368 0a1.26 1.26 0 0 1 1.264 1.256 1.26 1.26 0 0 1-1.264 1.256 1.26 1.26 0 0 1-1.263-1.256 1.26 1.26 0 0 1 1.263-1.256Zm15.158 0a1.26 1.26 0 0 1 1.264 1.256 1.26 1.26 0 0 1-1.264 1.256 1.26 1.26 0 0 1-1.263-1.256 1.26 1.26 0 0 1 1.263-1.256Zm-21.894.837a.42.42 0 0 0-.421.42.42.42 0 0 0 .42.418.42.42 0 0 0 .422-.419.42.42 0 0 0-.421-.419Zm3.368 0a.42.42 0 0 0-.421.42.42.42 0 0 0 .421.418.42.42 0 0 0 .421-.419.42.42 0 0 0-.42-.419Zm3.368 0a.42.42 0 0 0-.42.42.42.42 0 0 0 .42.418.42.42 0 0 0 .422-.419.42.42 0 0 0-.422-.419Zm15.158 0a.42.42 0 0 0-.42.42.42.42 0 0 0 .42.418.42.42 0 0 0 .421-.419.42.42 0 0 0-.42-.419Zm-.842-6.279h-20.21v2.512h20.21V7.674Z" id="Combined-Shape" fill="#000" fill-rule="nonzero"/></g></svg>