<svg width="48" height="48" xmlns="http://www.w3.org/2000/svg"><g id="Icons/Recipes/More" stroke="none" stroke-width="1" fill="none" fill-rule="evenodd"><path d="M24 8c8.837 0 16 7.163 16 16s-7.163 16-16 16S8 32.837 8 24 15.163 8 24 8Zm0 1.882C16.203 9.882 9.882 16.203 9.882 24c0 7.797 6.321 14.118 14.118 14.118 7.797 0 14.118-6.321 14.118-14.118 0-7.797-6.321-14.118-14.118-14.118ZM24.5 17c.518 0 .938.42.938.938l-.001 5.624h5.625a.937.937 0 1 1 0 1.875h-5.625v5.625a.937.937 0 1 1-1.875 0v-5.625h-5.625a.937.937 0 1 1 0-1.875h5.625v-5.625c0-.517.42-.937.938-.937Z" id="Combined-Shape" fill="#000" fill-rule="nonzero"/></g></svg>