<svg width="48" height="48" xmlns="http://www.w3.org/2000/svg"><g id="Icons/Recipes/Difficulty" stroke="none" stroke-width="1" fill="none" fill-rule="evenodd"><g id="ic-difficulty"><path id="bounds" d="M0 0h48v48H0z"/><path d="M40.347 21.327a6.452 6.452 0 0 1-2.6 4.242 6.463 6.463 0 0 1-4.837 1.161.994.994 0 0 0-1.143.831.997.997 0 0 0 .83 1.143c.45.073.9.108 1.35.108.082 0 .16-.017.243-.02V41.73a1 1 0 0 1-1 1h-18c-.551 0-1-.448-1-1v-2.5h8a1 1 0 1 0 0-2h-8v-9.014a8.9 8.9 0 0 0 1.08-.15 8.448 8.448 0 0 0 5.362-3.686 1 1 0 1 0-1.678-1.089 6.508 6.508 0 0 1-8.991 1.911 6.46 6.46 0 0 1-2.818-4.1 6.457 6.457 0 0 1 .907-4.892 6.46 6.46 0 0 1 4.1-2.818 6.459 6.459 0 0 1 4.52.692 9.56 9.56 0 0 0 .307 1.88 1 1 0 1 0 1.932-.518C17.84 11.45 20.22 7.33 24.214 6.26c3.99-1.07 8.115 1.31 9.186 5.303.023.088.036.175.055.262.155.667.22 1.335.194 1.99-.134 3.188-2.311 6.065-5.552 6.934a1 1 0 1 0 .518 1.932c4.056-1.087 6.79-4.659 7.019-8.64a6.453 6.453 0 0 1 3.552 2.45 6.464 6.464 0 0 1 1.16 4.837m.458-6.013a8.432 8.432 0 0 0-5.274-3.342 9.456 9.456 0 0 0-.2-.927 9.432 9.432 0 0 0-4.424-5.768 9.442 9.442 0 0 0-7.21-.95C20 5.318 17.407 8.373 16.8 11.92a8.423 8.423 0 0 0-5.063-.484 8.447 8.447 0 0 0-5.362 3.685 8.447 8.447 0 0 0-1.185 6.397 8.442 8.442 0 0 0 3.685 5.361 8.497 8.497 0 0 0 3.316 1.268V41.73c0 1.654 1.345 3 3 3h18c1.654 0 3-1.346 3-3V28.487a8.482 8.482 0 0 0 2.733-1.3 8.445 8.445 0 0 0 3.399-5.547 8.447 8.447 0 0 0-1.518-6.326" id="Fill-1" fill="#000" fill-rule="nonzero"/></g></g></svg>