<svg width="48" height="48" xmlns="http://www.w3.org/2000/svg" xmlns:xlink="http://www.w3.org/1999/xlink"><defs><path id="path-1" d="M0 .062h28V38H0z"/></defs><g id="Icons/Recipes/Quick" stroke="none" stroke-width="1" fill="none" fill-rule="evenodd"><g id="Group-6" transform="translate(10 5)"><g id="Group-3" transform="translate(0 .938)"><mask id="mask-2" fill="#fff"><use xlink:href="#path-1"/></mask><path d="M23.7 29.09A2.93 2.93 0 0 0 23 29H5c-.24 0-.473.036-.697.09a11.905 11.905 0 0 1-2.26-8.028h23.915A11.909 11.909 0 0 1 23.7 29.09ZM24 35a1 1 0 0 1-1 1H5c-.55 0-1-.448-1-1v-3c0-.552.45-1 1-1h18a1 1 0 0 1 1 1v3ZM14 2.062c5.573 0 10.477 10.028 11.704 17h-3.267v-2a1 1 0 1 0-2 0v2H17.48v-2a1 1 0 1 0-2 0v2h-2.958v-2a1 1 0 1 0-2 0v2h-2.96v-2a1 1 0 1 0-2 0v2H2.296c1.226-6.972 6.13-17 11.704-17Zm14 20c0-3.89-1.542-9.254-3.928-13.668C21.168 3.02 17.592.062 14 .062c-3.59 0-7.168 2.959-10.072 8.332C1.542 12.808 0 18.173 0 22.062c0 3.03.985 5.827 2.63 8.12A2.969 2.969 0 0 0 2 32v3c0 1.654 1.345 3 3 3h18c1.654 0 3-1.346 3-3v-3c0-.68-.237-1.302-.62-1.806A13.91 13.91 0 0 0 28 22.062Z" id="Fill-1" fill="#000" fill-rule="nonzero" mask="url(#mask-2)"/></g><path d="M14 27.244a1.293 1.293 0 0 1-1.29-1.291c0-.712.58-1.291 1.29-1.291.711 0 1.291.579 1.291 1.291s-.58 1.291-1.29 1.291m0-4.281a2.994 2.994 0 0 0-2.992 2.99A2.994 2.994 0 0 0 14 28.943a2.994 2.994 0 0 0 2.991-2.99 2.994 2.994 0 0 0-2.99-2.99" id="Fill-4" fill="#000" fill-rule="nonzero"/></g></g></svg>