<svg width="48" height="48" xmlns="http://www.w3.org/2000/svg"><g id="Icons/Recipes/Marinatetime" stroke="none" stroke-width="1" fill="none" fill-rule="evenodd"><g id="marinate-time" transform="translate(3 7)" fill="#000" fill-rule="nonzero"><path d="m38.666 12.547-.808-.279a3.548 3.548 0 0 0 1.528-2.03c.14-.48.037-.996-.276-1.395a1.877 1.877 0 0 0-1.419-.523l-2.91-.125c.051-.12.095-.238.138-.35.728-1.987 0-2.315-.21-2.42-.212-.104-.452-.216-8.629.816a.706.706 0 0 0-.24-.272l-.087-.048a5.293 5.293 0 0 0-2.314-.314c-1.848 0-5.252-.07-11.967-1.681l.196-.698a1.345 1.345 0 0 0-.135-1.065 1.448 1.448 0 0 0-.883-.658L5.048.047a1.51 1.51 0 0 0-1.105.141 1.404 1.404 0 0 0-.677.85L.05 12.554c-.208.744.25 1.508 1.026 1.709l5.587 1.43c.123.033.25.05.379.049.665.009 1.252-.416 1.425-1.033l.393-1.395c.675.116 1.315.37 1.877.747.114.372.18.756.197 1.144.024.452.097.9.218 1.339a6.556 6.556 0 0 0 1.418 2.232c.259.293.502.598.728.914.29.448.547.914.771 1.395a6.634 6.634 0 0 0 2.08 2.79c.467.25.954.461 1.456.635 1.251.481 3.332 1.283 4.052 1.925.134.12.31.188.495.188h.138a.728.728 0 0 0 .516-.341c.2-.333.347-.693.437-1.068.288.672.77 1.25 1.39 1.667a.75.75 0 0 0 .407.119.73.73 0 0 0 .647-.37 23.497 23.497 0 0 1 3.15-4.331c.466-.35 3.209-4.116 3.361-4.883a.677.677 0 0 0-.152-.586 25.3 25.3 0 0 1-1.135-1.36c2.182.628 4.365 1.22 6.547 1.758a6.81 6.81 0 0 0 1.579.223 2.532 2.532 0 0 0 1.862-.698c.233-.237 1.499-2.288.975-2.978-.196-.189-.196-.189-3.208-1.228Zm-.684-2.846a.529.529 0 0 1 0 .23 2.267 2.267 0 0 1-1.077 1.284c-.34.215-.755.296-1.156.223a.758.758 0 0 0-.306 0 282.552 282.552 0 0 1-5.82-2.093l8.003.335c.218.028.341.042.356.021ZM33.53 7.385c-.08.255-.211.492-.386.698l-6.49-.244c0-.09-.065-.182-.094-.265 2.445-.3 5.77-.698 7.166-.802a5.597 5.597 0 0 1-.196.613ZM7.012 14.347 1.454 12.91 4.67 1.394l5.587 1.437-3.245 11.516Zm16.085 8.238a3.21 3.21 0 0 0-.196-.384 4.845 4.845 0 0 0-2.48-2.246 3.976 3.976 0 0 0-.38-1.828 16.632 16.632 0 0 0 2.627-1.395 2.865 2.865 0 0 0 2.365 1.13h.378a5.69 5.69 0 0 0 .087 1.451c-1.251.705-2.08 2.379-2.4 3.272Zm4.824-1.395a21.708 21.708 0 0 0-3.048 3.948 2.46 2.46 0 0 1-.48-1.884c.29-1.004 1.243-2.609 2.03-2.79a.705.705 0 0 0 .588-.697 5.425 5.425 0 0 0-.065-.614 4.686 4.686 0 0 1-.08-1.228.68.68 0 0 0 .22-.63.704.704 0 0 0-.431-.52 6.268 6.268 0 0 0-1.455-.273c-.728-.077-1.04-.125-1.346-.572.226-.202.437-.404.64-.614.204-.209.415-.404.633-.6a.678.678 0 0 0 .04-.987.75.75 0 0 0-1.03-.038c-.24.21-.465.433-.727.656a6.979 6.979 0 0 1-1.244 1.074c-2.524 1.57-3.157 1.57-3.164 1.57a.737.737 0 0 0-.728.348.675.675 0 0 0 .08.795 2.59 2.59 0 0 1 .575 2.31.67.67 0 0 0 .092.526.727.727 0 0 0 .453.31.645.645 0 0 0 .168 0c.08 0 .158-.014.233-.042.574.098 1.207.698 1.79 1.654.303.595.375 1.275.203 1.918a28.08 28.08 0 0 0-3.638-1.619c-.502-.188-1.069-.411-1.193-.48a5.531 5.531 0 0 1-1.607-2.247 12.362 12.362 0 0 0-.917-1.52c-.255-.363-.538-.698-.815-1.033a5.268 5.268 0 0 1-1.15-1.758 5.166 5.166 0 0 1-.167-1.06 5.716 5.716 0 0 0-.276-1.5c-.335-.927-1.92-1.395-2.91-1.646l1.87-6.69c6.896 1.654 10.41 1.71 12.323 1.73a8.41 8.41 0 0 1 1.455.084l.073.245a27.041 27.041 0 0 0 5.682 10.086 38.869 38.869 0 0 1-2.677 3.801v-.013Zm11.88-5.406c-.408.411-1.353.244-2.03.076-2.743-.697-5.514-1.43-8.228-2.246a25.17 25.17 0 0 1-2.015-3.557c3.2 1.214 7.762 2.79 10.643 3.788l2.22.767a5.01 5.01 0 0 1-.59 1.186v-.014Z" id="Shape"/><path d="M6.265 11.034a1.014 1.014 0 0 0-.515 1.96c.083.008.166.008.25 0 .455-.002.854-.31.973-.753a1.013 1.013 0 0 0-.708-1.207ZM23.5 28c-.276 0-.5.204-.5.457v.086c0 .253.224.457.5.457s.5-.204.5-.457v-.086c0-.253-.224-.457-.5-.457Zm0 6c-.276 0-.5.204-.5.455v.09c0 .251.224.455.5.455s.5-.204.5-.455v-.09c0-.251-.224-.455-.5-.455Zm0-3c-.276 0-.5.204-.5.455v.09c0 .251.224.455.5.455s.5-.204.5-.455v-.09c0-.251-.224-.455-.5-.455Zm-4.14-1.003a.448.448 0 0 0 .109 0 .489.489 0 0 0 .495-.354l.024-.09c.059-.245-.11-.486-.376-.54a.532.532 0 0 0-.39.064.452.452 0 0 0-.213.307v.091c-.048.231.104.458.351.522Zm-.348 2.367v.09a.424.424 0 0 0 .064.345c.07.103.183.175.311.2h.108a.487.487 0 0 0 .493-.353v-.091c.059-.243-.106-.484-.37-.54a.529.529 0 0 0-.384.054.456.456 0 0 0-.222.295Zm6.965-3.014c-.063-.244-.33-.395-.595-.338-.267.058-.431.302-.369.546v.09a.49.49 0 0 0 .495.349.49.49 0 0 0 .113 0c.264-.058.428-.301.366-.543l-.01-.105Zm.048 3.216v.084a.48.48 0 0 0 .486.347.484.484 0 0 0 .112 0 .487.487 0 0 0 .303-.198c.068-.1.09-.22.061-.335l-.019-.08a.456.456 0 0 0-.326-.36.52.52 0 0 0-.498.105.417.417 0 0 0-.12.455v-.018Z" id="Path"/></g></g></svg>