<svg width="48" height="48" xmlns="http://www.w3.org/2000/svg"><g id="Icons/Recipes/Preptime" stroke="none" stroke-width="1" fill="none" fill-rule="evenodd"><path d="M29 5a2 2 0 0 1 2 2v34a2 2 0 0 1-2 2H6a2 2 0 0 1-2-2V7a2 2 0 0 1 2-2h23Zm16 1v20h-6v14a3 3 0 0 1-6 0V8a2 2 0 0 1 2-2h10ZM29 7H6v34h23V7Zm8 20h-2v13a1 1 0 0 0 2 0V27Zm6-19h-8v16h8V8ZM22 9a2 2 0 0 1 2 2v2a2 2 0 0 1-2 2h-9a2 2 0 0 1-2-2v-2a2 2 0 0 1 2-2h9Zm0 2h-9v2h9v-2Zm18.5-2a1.5 1.5 0 1 1 0 3 1.5 1.5 0 0 1 0-3Zm0 1a.5.5 0 1 0 0 1 .5.5 0 0 0 0-1Z" id="Combined-Shape" fill="#000" fill-rule="nonzero"/></g></svg>