<svg width="48" height="48" xmlns="http://www.w3.org/2000/svg"><g id="Icons/Recipes/Cooktime" stroke="none" stroke-width="1" fill="none" fill-rule="evenodd"><g id="cook" transform="translate(5 4)" fill="#000" fill-rule="nonzero"><path d="M33.785 19.276H32.58l.01-.392a.96.96 0 0 0 .008-.12c0-.412.637-.957 1.117-.957.508 0 .92-.416.92-.928a.924.924 0 0 0-.92-.928H4.285a.924.924 0 0 0-.92.928c0 .512.412.928.92.928.384 0 1.117.737 1.117 1.234a.85.85 0 0 0 .006.1l.004.134H4.216C1.89 19.275 0 21.183 0 23.528c0 2.344 1.89 4.252 4.216 4.252h1.412c.1 4.01.192 7.796.192 8.35 0 2.685 2.165 4.87 4.828 4.87h16.828c.05 0 .099-.004.147-.012 2.566-.142 4.559-2.253 4.559-4.859 0-.915.083-4.503.178-8.35h1.425c2.324 0 4.215-1.907 4.215-4.251 0-2.345-1.89-4.252-4.215-4.252Zm-29.57 6.648a2.389 2.389 0 0 1-2.376-2.396c0-1.322 1.066-2.397 2.376-2.397H5.46l.122 4.793H4.215ZM27.447 39.14a.894.894 0 0 0-.079.006h-16.72c-1.649 0-2.99-1.353-2.99-3.016 0-.923-.232-10.015-.37-15.447l-.042-1.648a.756.756 0 0 0-.006-.076 2.794 2.794 0 0 0-.316-1.151h24.034a2.449 2.449 0 0 0-.198.855.908.908 0 0 0-.007.094c-.124 4.648-.411 15.646-.411 17.373a2.986 2.986 0 0 1-2.895 3.01Zm6.338-13.215h-1.378l.124-4.793h1.254c1.31 0 2.376 1.075 2.376 2.397a2.388 2.388 0 0 1-2.376 2.396Zm-18.24-14.716a4.26 4.26 0 0 1-1.137-2.905c0-1.137.439-2.204 1.235-3.008l.409-.405c.386-.418.613-1 .613-1.61 0-.64-.247-1.243-.696-1.696a.934.934 0 0 1 0-1.312.915.915 0 0 1 1.3 0 4.246 4.246 0 0 1 1.236 3.007 4.26 4.26 0 0 1-1.137 2.905l-.43.428a2.39 2.39 0 0 0-.691 1.69 2.4 2.4 0 0 0 .64 1.638.934.934 0 0 1-.043 1.312.914.914 0 0 1-1.3-.044Zm5.087 2.232a4.26 4.26 0 0 1-1.137-2.905c0-1.136.439-2.205 1.235-3.008l.41-.406c.386-.417.613-1 .613-1.61 0-.64-.247-1.242-.697-1.696a.933.933 0 0 1 0-1.311.914.914 0 0 1 1.301 0 4.245 4.245 0 0 1 1.236 3.007 4.26 4.26 0 0 1-1.137 2.906l-.431.427a2.39 2.39 0 0 0-.69 1.69c0 .61.227 1.192.64 1.639a.934.934 0 0 1-.043 1.31.914.914 0 0 1-1.3-.043Z" id="Shape"/></g></g></svg>