<svg width="32" height="32" xmlns="http://www.w3.org/2000/svg"><g id="Icons/Social/WhatsApp" stroke="none" stroke-width="1" fill="none" fill-rule="evenodd"><path d="M32 15.588c0 8.609-7.033 15.588-15.71 15.588-2.754 0-5.341-.704-7.593-1.94L0 32l2.836-8.363a15.424 15.424 0 0 1-2.255-8.05C.581 6.98 7.615 0 16.291 0 24.968 0 32 6.979 32 15.588ZM16.29 2.482c-7.282 0-13.207 5.88-13.207 13.106 0 2.867.935 5.523 2.516 7.683L3.95 28.14l5.076-1.613a13.199 13.199 0 0 0 7.266 2.167c7.282 0 13.208-5.878 13.208-13.104 0-7.227-5.925-13.107-13.208-13.107Zm7.934 16.696c-.097-.159-.354-.255-.738-.446-.386-.19-2.28-1.116-2.632-1.243-.353-.127-.61-.19-.866.191-.257.383-.995 1.243-1.22 1.498-.225.256-.45.288-.834.096-.385-.19-1.626-.595-3.097-1.896-1.144-1.012-1.917-2.263-2.142-2.646-.224-.382-.023-.588.169-.779.174-.171.385-.446.578-.669.193-.223.257-.382.384-.637.13-.255.065-.478-.032-.67-.096-.19-.866-2.07-1.187-2.836-.32-.764-.641-.637-.866-.637-.225 0-.482-.032-.738-.032a1.42 1.42 0 0 0-1.028.478c-.352.382-1.347 1.307-1.347 3.187s1.38 3.696 1.573 3.95c.192.255 2.663 4.239 6.577 5.769 3.915 1.53 3.915 1.019 4.621.955.706-.064 2.278-.924 2.6-1.816.32-.893.32-1.658.225-1.817Z" id="icon" fill="#000" fill-rule="nonzero"/></g></svg>