<svg width="32" height="32" xmlns="http://www.w3.org/2000/svg"><g id="Icons/Email" stroke="none" stroke-width="1" fill="none" fill-rule="evenodd"><g id="icon" transform="translate(0 4)" fill="#000" fill-rule="nonzero"><path d="M0 21.354V3.647c.025-.07.046-.14.063-.212C.393 1.475 2.03.007 3.945.005c8.037-.007 16.073-.007 24.11 0 1.821 0 3.4 1.334 3.828 3.178.036.156.08.31.117.465v17.706a.823.823 0 0 0-.054.147c-.297 1.729-1.452 3.06-3.091 3.38-.768.15-1.574.113-2.362.113-7.484.008-14.969.008-22.454 0-1.84 0-3.385-1.212-3.885-3.02-.057-.201-.103-.41-.154-.62Zm10.888-9.157c-.5.514-.972 1-1.437 1.491l-5.093 5.29c-.307.318-.45.678-.32 1.116.231.796 1.125.987 1.726.367a2488.78 2488.78 0 0 0 6.34-6.604c.078-.095.148-.197.211-.304.175.166.29.27.405.378l2.545 2.409c.484.455.989.45 1.475-.007.88-.83 1.76-1.66 2.64-2.493.08-.078.169-.155.268-.25.796.83 1.574 1.645 2.352 2.457l4.24 4.417c.288.3.617.44 1.018.329.777-.22 1-1.161.411-1.78a955.658 955.658 0 0 0-4.263-4.442c-.757-.789-1.52-1.575-2.29-2.378.1-.1.182-.181.266-.26l3.096-2.93 3.168-3c.305-.288.426-.643.325-1.056a.97.97 0 0 0-.712-.75c-.4-.11-.724.042-1.023.326a6668.295 6668.295 0 0 1-9.986 9.455c-.08.077-.166.151-.255.232l-4.764-4.509c-1.833-1.73-3.667-3.464-5.503-5.2-.29-.274-.612-.407-1-.293a.973.973 0 0 0-.706.75c-.096.416.031.766.336 1.054a2281.76 2281.76 0 0 1 3.932 3.72l2.6 2.465Z" id="Shape"/></g></g></svg>