<svg id="instagram" viewBox="0 0 32 32" xmlns="http://www.w3.org/2000/svg"><path d="M14.652 0h2.696c3.137.005 3.737.027 5.249.096C24.3.174 25.463.444 26.48.84a7.842 7.842 0 0 1 2.834 1.845A7.843 7.843 0 0 1 31.16 5.52c.396 1.018.666 2.181.744 3.884C31.982 11.11 32 11.655 32 16c0 4.345-.018 4.89-.096 6.597-.078 1.703-.348 2.866-.744 3.884a7.843 7.843 0 0 1-1.845 2.834 7.842 7.842 0 0 1-2.834 1.845c-1.018.396-2.181.666-3.884.744C20.89 31.982 20.345 32 16 32c-4.345 0-4.89-.018-6.597-.096-1.703-.078-2.866-.348-3.884-.744a7.842 7.842 0 0 1-2.834-1.845A7.842 7.842 0 0 1 .84 26.48C.444 25.463.174 24.3.096 22.597c-.069-1.512-.091-2.112-.095-5.249v-2.696c.004-3.137.026-3.737.095-5.249C.174 7.7.444 6.537.84 5.52a7.842 7.842 0 0 1 1.845-2.834A7.842 7.842 0 0 1 5.52.84C6.537.444 7.7.174 9.403.096c1.512-.069 2.112-.091 5.249-.095h2.696ZM16 2.884h-.357c-3.945 0-4.47.018-6.108.093-1.56.071-2.408.332-2.971.551-.747.29-1.28.637-1.84 1.197a4.959 4.959 0 0 0-1.197 1.84c-.219.563-.48 1.41-.55 2.97-.076 1.64-.093 2.164-.094 6.109v.714c0 3.945.018 4.47.093 6.108.071 1.56.332 2.408.551 2.971a4.96 4.96 0 0 0 1.197 1.84c.56.56 1.093.907 1.84 1.197.563.219 1.41.48 2.97.55 1.64.076 2.164.093 6.109.094h.714c3.945 0 4.47-.018 6.108-.093 1.56-.071 2.408-.332 2.971-.551a4.956 4.956 0 0 0 1.84-1.197c.56-.56.907-1.093 1.197-1.84.219-.563.48-1.41.55-2.97.073-1.591.092-2.132.094-5.77v-1.392c-.002-3.638-.02-4.179-.093-5.77-.071-1.56-.332-2.407-.551-2.97a4.955 4.955 0 0 0-1.197-1.84 4.957 4.957 0 0 0-1.84-1.197c-.563-.219-1.41-.48-2.97-.55-1.591-.073-2.132-.092-5.77-.094h-.339ZM16 8a8 8 0 1 1 0 16 8 8 0 0 1 0-16Zm0 2.807a5.193 5.193 0 1 0 0 10.386 5.193 5.193 0 0 0 0-10.386ZM25 5a2 2 0 1 1 0 4 2 2 0 0 1 0-4Z" id="Combined-Shape" fill="currentColor" fill-rule="nonzero"/></svg>
