<svg width="32" height="32" xmlns="http://www.w3.org/2000/svg"><g id="Icons/Social/Print" stroke="none" stroke-width="1" fill="none" fill-rule="evenodd"><path d="M28 12V4.828c0-.53-.21-1.039-.586-1.414L24.586.586A2 2 0 0 0 23.17 0H6a2 2 0 0 0-2 2v10a4 4 0 0 0-4 4v7a1 1 0 0 0 1 1h3v6a2 2 0 0 0 2 2h20a2 2 0 0 0 2-2v-6h3a1 1 0 0 0 1-1v-7a4 4 0 0 0-4-4Zm-4 16H8v-6h16v6Zm0-14H8V4h12v3a1 1 0 0 0 1 1h3v6Zm2.5 4a1.5 1.5 0 1 1 0-3 1.5 1.5 0 0 1 0 3Z" id="Shape" fill="#000" fill-rule="nonzero"/></g></svg>