<svg width="80" height="56" xmlns="http://www.w3.org/2000/svg"><g id="Buttons/YouTube-Play/Default" stroke="none" stroke-width="1" fill="none" fill-rule="evenodd"><g id="Icons/Social/Youtube" transform="translate(4 -8)" fill="#000" fill-rule="nonzero"><path d="M37.055 11.407c2.803.008 15.92.08 25 .721 1.426.166 4.538.18 7.314 3.023 2.189 2.165 2.902 7.082 2.902 7.082S73 28.008 73 33.782v5.414c0 5.774-.729 11.548-.729 11.548s-.713 4.917-2.902 7.083c-2.776 2.842-5.888 2.856-7.314 3.022-9.648.682-23.866.74-25.416.744h-.168c-.827-.007-19.083-.181-24.79-.716-1.625-.298-5.273-.208-8.05-3.05C1.442 55.66.73 50.744.73 50.744S0 44.97 0 39.196V33.46c.027-5.665.73-11.228.73-11.228s.712-4.917 2.901-7.082c2.777-2.842 5.887-2.857 7.314-3.023 9.08-.642 22.197-.713 25-.72Zm-9.68 15.968.003 20.531 20.528-10.23-20.531-10.301Z" id="Combined-Shape"/></g></g></svg>