<svg width="32" height="32" xmlns="http://www.w3.org/2000/svg"><g id="Icons/Social/Download" stroke="none" stroke-width="1" fill="none" fill-rule="evenodd"><path d="M14.058 0h4.89c.813 0 1.468.669 1.468 1.5v10.502h5.361c1.088 0 1.632 1.344.862 2.132l-9.298 9.514a1.166 1.166 0 0 1-1.67 0l-9.31-9.514c-.77-.788-.226-2.132.862-2.132h5.368V1.5c0-.831.654-1.5 1.467-1.5ZM32 23.5v7c0 .831-.669 1.5-1.5 1.5h-29C.669 32 0 31.331 0 30.5v-7c0-.831.669-1.5 1.5-1.5h9.169l3.062 3.063a3.203 3.203 0 0 0 4.538 0L21.33 22h9.17c.831 0 1.5.669 1.5 1.5ZM24 29c0-.55-.45-1-1-1s-1 .45-1 1 .45 1 1 1 1-.45 1-1Zm3 0c0-.55-.45-1-1-1s-1 .45-1 1 .45 1 1 1 1-.45 1-1Z" id="Shape" fill="#000" fill-rule="nonzero"/></g></svg>