<svg width="32" height="32" xmlns="http://www.w3.org/2000/svg"><g id="Icons/Social/WeChat" stroke="none" stroke-width="1" fill="none" fill-rule="evenodd"><path d="M9.063 9.22c0-.859-.563-1.42-1.423-1.42-.844 0-1.704.561-1.704 1.418 0 .842.86 1.403 1.704 1.403.859 0 1.421-.56 1.421-1.403Zm11.609 7.902c0-.56-.563-1.122-1.422-1.122-.563 0-1.125.561-1.125 1.122 0 .577.563 1.138 1.125 1.138.86 0 1.422-.561 1.422-1.138ZM16.984 9.22c0-.857-.562-1.418-1.406-1.418-.86 0-1.703.561-1.703 1.418 0 .842.844 1.403 1.703 1.403.844 0 1.406-.56 1.406-1.403Zm9.922 7.903c0-.56-.578-1.122-1.422-1.122-.562 0-1.125.561-1.125 1.122 0 .577.563 1.138 1.125 1.138.844 0 1.422-.561 1.422-1.138Zm-4.156-6.188a8.417 8.417 0 0 0-1.094-.062c-5.375 0-9.625 4.006-9.625 8.931 0 .826.125 1.621.36 2.37-.36.03-.704.046-1.063.046-1.422 0-2.547-.28-3.969-.56l-3.953 1.979 1.125-3.398C1.703 18.26 0 15.704 0 12.602 0 7.224 5.094 3 11.328 3c5.563 0 10.453 3.382 11.422 7.934ZM32 19.68c0 2.54-1.688 4.8-3.969 6.5l.86 2.821-3.11-1.699c-1.14.28-2.281.577-3.406.577-5.39 0-9.625-3.679-9.625-8.2 0-4.52 4.234-8.198 9.625-8.198 5.094 0 9.625 3.678 9.625 8.199Z" id="" fill="#000" fill-rule="nonzero"/></g></svg>