<svg id="youtube"  viewBox="0 0 32 32" xmlns="http://www.w3.org/2000/svg"><path d="M16.338 5c1.404.006 6.977.042 10.864.316.625.073 1.99.08 3.206 1.325.96.95 1.272 3.105 1.272 3.105s.32 2.531.32 5.063v2.373c0 2.53-.32 5.062-.32 5.062s-.312 2.156-1.272 3.105c-1.217 1.246-2.58 1.252-3.206 1.325C22.724 26.99 16 27 16 27s-8.32-.074-10.88-.314c-.712-.13-2.311-.091-3.528-1.337-.96-.95-1.272-3.105-1.272-3.105S0 19.713 0 17.182l.001-2.618c.02-2.447.319-4.818.319-4.818s.312-2.155 1.272-3.105c1.217-1.245 2.58-1.252 3.206-1.325 3.887-.274 9.46-.31 10.864-.315ZM12 12l.002 9L21 16.516 12 12Z" id="Combined-Shape" fill="currentColor" fill-rule="nonzero"/></svg>
