<svg width="80" height="56" xmlns="http://www.w3.org/2000/svg" xmlns:xlink="http://www.w3.org/1999/xlink"><defs><filter x="-9.1%" y="-13%" width="118.2%" height="126.1%" filterUnits="objectBoundingBox" id="filter-2"><feOffset in="SourceAlpha" result="shadowOffsetOuter1"/><feGaussianBlur stdDeviation="2" in="shadowOffsetOuter1" result="shadowBlurOuter1"/><feComposite in="shadowBlurOuter1" in2="SourceAlpha" operator="out" result="shadowBlurOuter1"/><feColorMatrix values="0 0 0 0 0 0 0 0 0 0 0 0 0 0 0 0 0 0 0.5 0" in="shadowBlurOuter1"/></filter><path d="M33.458 0c2.438.007 14.388.07 22.646.662 1.29.152 4.103.165 6.613 2.77 1.98 1.985 2.624 6.492 2.624 6.492S66 15.216 66 20.509v4.962c0 5.292-.66 10.585-.66 10.585s-.644 4.507-2.623 6.491c-2.51 2.605-5.323 2.618-6.613 2.77C46.868 45.98 33 46 33 46s-17.16-.155-22.44-.657c-1.469-.273-4.767-.19-7.277-2.796C1.304 40.563.66 36.056.66 36.056S0 30.763 0 25.47v-5.274C.027 15.011.66 9.924.66 9.924s.644-4.507 2.623-6.492C5.793.827 8.606.814 9.896.662 18.154.07 30.104.007 32.542 0Zm-7.275 13.107.003 18 17.997-8.969-18-9.031Z" id="path-1"/></defs><g id="Buttons/YouTube-Play/Inverted" stroke="none" stroke-width="1" fill="none" fill-rule="evenodd"><g id="White" transform="translate(7 5)"><g id="Combined-Shape"><use fill="#000" filter="url(#filter-2)" xlink:href="#path-1"/><use fill-opacity=".9" fill="#FFF" xlink:href="#path-1"/></g></g></g></svg>