<svg width="32" height="32" xmlns="http://www.w3.org/2000/svg"><g id="Icons/Social/Email" stroke="none" stroke-width="1" fill="none" fill-rule="evenodd"><path d="M31.394 12.08a.377.377 0 0 1 .606.29v12.66c0 1.639-1.344 2.97-3 2.97H3c-1.656 0-3-1.33-3-2.971V12.376c0-.31.356-.482.606-.29 1.4 1.077 3.256 2.445 9.632 7.031 1.318.954 3.543 2.96 5.762 2.947 2.231.018 4.5-2.03 5.769-2.947 6.375-4.586 8.225-5.96 9.625-7.038ZM16 20c1.45.025 3.538-1.825 4.587-2.588 8.294-6.018 8.925-6.543 10.838-8.043.363-.282.575-.72.575-1.182V7a3 3 0 0 0-3-3H3a3 3 0 0 0-3 3v1.187c0 .463.212.894.575 1.182 1.912 1.493 2.544 2.025 10.838 8.043 1.05.763 3.137 2.613 4.587 2.588Z" id="Shape" fill="#000" fill-rule="nonzero"/></g></svg>