<svg width="32" height="32" xmlns="http://www.w3.org/2000/svg"><g id="Icons/Social/Pinterest" stroke="none" stroke-width="1" fill="none" fill-rule="evenodd"><path d="M25.758 3.28C23.568 1.164 20.538 0 17.226 0c-5.06 0-8.172 2.087-9.891 3.837C5.215 5.994 4 8.858 4 11.695c0 3.562 1.481 6.296 3.961 7.313a1.3 1.3 0 0 0 .498.104c.524 0 .938-.345 1.082-.897.084-.317.278-1.1.362-1.439.18-.67.035-.992-.36-1.46-.717-.853-1.05-1.863-1.05-3.177 0-3.903 2.888-8.051 8.243-8.051 4.248 0 6.887 2.429 6.887 6.34 0 2.467-.528 4.752-1.488 6.434-.666 1.17-1.84 2.563-3.64 2.563-.778 0-1.477-.322-1.918-.883-.417-.53-.554-1.215-.387-1.929.19-.806.448-1.648.698-2.46.456-1.486.886-2.89.886-4.008 0-1.915-1.17-3.201-2.91-3.201-2.213 0-3.947 2.26-3.947 5.147 0 1.415.374 2.474.544 2.88-.28 1.189-1.936 8.252-2.25 9.585-.182.777-1.276 6.919.535 7.408 2.036.55 3.855-5.43 4.04-6.107.15-.55.676-2.628.998-3.906.982.952 2.564 1.596 4.104 1.596 2.902 0 5.512-1.314 7.349-3.7C28.019 17.535 29 14.31 29 10.768 29 8 27.818 5.27 25.758 3.28Z" id="icon" fill="#000" fill-rule="nonzero"/></g></svg>