<svg width="50" height="50" xmlns="http://www.w3.org/2000/svg"><g id="Buttons/Arrow/Left/Medium" stroke="none" stroke-width="1" fill="none" fill-rule="evenodd"><path id="Rectangle" fill="#363C48" fill-rule="nonzero" transform="matrix(-1 0 0 1 50 0)" d="M0 0h50v50H0z"/><g id="Icons/Chevron/Default/Left" transform="translate(17 17)" fill="#FFF"><g id="chevron-left" transform="translate(3)"><path d="m.275 7.38 7.1-7.1a.877.877 0 0 1 1.24 0l.827.829a.877.877 0 0 1 .002 1.238L3.817 8l5.626 5.653a.876.876 0 0 1-.001 1.238l-.828.828a.877.877 0 0 1-1.24 0l-7.1-7.1a.877.877 0 0 1 0-1.239Z" id="Path" fill-rule="nonzero"/></g></g></g></svg>