<svg id="basket" viewBox="0 0 32 32" version="1.1" xmlns="http://www.w3.org/2000/svg"><g fill="currentColor"><path d="M32 10.633v.892c0 .739-.597 1.338-1.333 1.338h-.445l-1.45 10.19a2.67 2.67 0 0 1-2.64 2.297H5.868a2.67 2.67 0 0 1-2.64-2.297l-1.45-10.19h-.445A1.336 1.336 0 0 1 0 11.525v-.892c0-.74.597-1.338 1.333-1.338h3.741l5.933-8.185A1.774 1.774 0 0 1 13.49.716c.794.58.97 1.695.392 2.492L9.471 9.295h13.058l-4.411-6.087A1.788 1.788 0 0 1 18.51.716a1.774 1.774 0 0 1 2.483.393l5.933 8.186h3.74c.737 0 1.334.599 1.334 1.338Zm-14.667 9.811v-6.243c0-.74-.597-1.338-1.333-1.338s-1.333.599-1.333 1.338v6.243c0 .74.597 1.338 1.333 1.338s1.333-.599 1.333-1.338Zm6.223 0v-6.243c0-.74-.597-1.338-1.334-1.338-.736 0-1.333.599-1.333 1.338v6.243c0 .74.597 1.338 1.333 1.338.737 0 1.334-.599 1.334-1.338Zm-12.445 0v-6.243c0-.74-.597-1.338-1.333-1.338-.737 0-1.334.599-1.334 1.338v6.243c0 .74.597 1.338 1.334 1.338.736 0 1.333-.599 1.333-1.338Z" id="Shape"/></g></svg>