<svg width="48" height="48" xmlns="http://www.w3.org/2000/svg"><g id="Buttons/-Arrow/-Back-to-top" stroke="none" stroke-width="1" fill="none" fill-rule="evenodd"><path id="Background" fill="#363C48" fill-rule="nonzero" d="M0 0h50v50H0z"/><g id="Icons/Chevron/Default/Up" transform="translate(14 14)" fill="#FFF"><g id="chevron-up" transform="translate(0 3.75)"><path d="m10.775.344 8.874 8.874a1.096 1.096 0 0 1 0 1.55l-1.035 1.035a1.096 1.096 0 0 1-1.548.001L10 4.771l-7.066 7.033a1.096 1.096 0 0 1-1.548-.001L.351 10.768a1.096 1.096 0 0 1 0-1.55L9.225.344a1.096 1.096 0 0 1 1.55 0Z" id="Path" fill-rule="nonzero"/></g></g></g></svg>