<svg width="50" height="50" xmlns="http://www.w3.org/2000/svg"><g id="Buttons/Close/Default/Medium" stroke="none" stroke-width="1" fill="none" fill-rule="evenodd"><path id="Rectangle" fill="#363C48" fill-rule="nonzero" d="M0 0h50v50H0z"/><g id="Icons/Close/Default" transform="translate(17 17)" fill="#FFF"><g id="times"><path d="m11.033 8 4.548-4.549a1.43 1.43 0 0 0 0-2.021L14.571.419a1.43 1.43 0 0 0-2.022 0L8 4.967 3.451.42a1.43 1.43 0 0 0-2.021 0L.419 1.429a1.43 1.43 0 0 0 0 2.022L4.967 8 .42 12.549a1.43 1.43 0 0 0 0 2.021l1.01 1.011a1.43 1.43 0 0 0 2.022 0L8 11.033l4.549 4.548a1.43 1.43 0 0 0 2.021 0l1.011-1.01a1.43 1.43 0 0 0 0-2.022L11.033 8Z" id="Path" fill-rule="nonzero"/></g></g></g></svg>