<svg width="32" height="32" xmlns="http://www.w3.org/2000/svg"><g id="Icons/Close/Circle" stroke="none" stroke-width="1" fill="none" fill-rule="evenodd"><g id="times-circle" fill="#000" fill-rule="nonzero"><path d="M16 0C7.208 0 .084 7.124.084 15.916c0 8.792 7.124 15.916 15.916 15.916 8.792 0 15.916-7.124 15.916-15.916C31.916 7.124 24.792 0 16 0Zm7.804 20.094a.77.77 0 0 1 0 1.09l-2.542 2.536a.77.77 0 0 1-1.09 0L16 19.51l-4.178 4.21a.77.77 0 0 1-1.09 0l-2.536-2.542a.77.77 0 0 1 0-1.09l4.21-4.172-4.21-4.178a.77.77 0 0 1 0-1.091l2.542-2.541a.77.77 0 0 1 1.09 0L16 12.322l4.178-4.21a.77.77 0 0 1 1.09 0l2.542 2.541a.77.77 0 0 1 0 1.091l-4.216 4.172 4.21 4.178Z" id="Shape"/></g></g></svg>