<svg width="32" height="32" xmlns="http://www.w3.org/2000/svg"><g id="Icons/Close/Default" stroke="none" stroke-width="1" fill="none" fill-rule="evenodd"><g id="times" fill="#000" fill-rule="nonzero"><path d="m22.065 16 9.098-9.097a2.86 2.86 0 0 0 0-4.044L29.14.837a2.86 2.86 0 0 0-4.044 0L16 9.935 6.903.837a2.86 2.86 0 0 0-4.044 0L.837 2.86a2.86 2.86 0 0 0 0 4.044L9.935 16 .837 25.097a2.86 2.86 0 0 0 0 4.044l2.022 2.022a2.86 2.86 0 0 0 4.044 0L16 22.065l9.097 9.098a2.86 2.86 0 0 0 4.044 0l2.022-2.022a2.86 2.86 0 0 0 0-4.044L22.065 16Z" id="Path"/></g></g></svg>