<svg id="clock" width="32" height="32" version="1.1" xmlns="http://www.w3.org/2000/svg"><g fill="currentColor"><path d="M16 .076C7.161.076 0 7.203 0 16s7.161 15.924 16 15.924S32 24.797 32 16 24.839.076 16 .076Zm0 28.766C8.871 28.842 3.097 23.095 3.097 16 3.097 8.905 8.87 3.158 16 3.158c7.129 0 12.903 5.747 12.903 12.842 0 7.095-5.774 12.842-12.903 12.842Zm3.987-6.704-5.477-3.961a.774.774 0 0 1-.316-.623V7.01c0-.424.348-.77.774-.77h2.064c.426 0 .774.346.774.77v9.098l4.31 3.12c.349.251.42.733.168 1.08L21.07 21.97a.782.782 0 0 1-1.084.167Z" id="Shape"/></g></svg>