<svg width="32" height="32" xmlns="http://www.w3.org/2000/svg"><g id="Icons/Delete" stroke="none" stroke-width="1" fill="none" fill-rule="evenodd"><g id="trash-alt" transform="translate(2)" fill="#000" fill-rule="nonzero"><path d="M2 29a3 3 0 0 0 3 3h18a3 3 0 0 0 3-3V8H2v21Zm17-16a1 1 0 0 1 2 0v14a1 1 0 0 1-2 0V13Zm-6 0a1 1 0 0 1 2 0v14a1 1 0 0 1-2 0V13Zm-6 0a1 1 0 0 1 2 0v14a1 1 0 0 1-2 0V13ZM27 2h-7.5L18.913.831A1.5 1.5 0 0 0 17.569 0h-7.144a1.483 1.483 0 0 0-1.338.831L8.5 2H1a1 1 0 0 0-1 1v2a1 1 0 0 0 1 1h26a1 1 0 0 0 1-1V3a1 1 0 0 0-1-1Z" id="Shape"/></g></g></svg>