<svg width="32" height="32" xmlns="http://www.w3.org/2000/svg"><g id="Icons/External-Link" stroke="none" stroke-width="1" fill="none" fill-rule="evenodd"><path d="M25 18.205v5.681A5.115 5.115 0 0 1 19.886 29H5.114A5.115 5.115 0 0 1 0 23.886V9.114A5.115 5.115 0 0 1 5.114 4h12.5a.56.56 0 0 1 .568.568v1.137a.56.56 0 0 1-.568.568h-12.5a2.85 2.85 0 0 0-2.841 2.84v14.773a2.85 2.85 0 0 0 2.84 2.841h14.773a2.85 2.85 0 0 0 2.841-2.84v-5.682a.56.56 0 0 1 .568-.569h1.137a.56.56 0 0 1 .568.569Zm7-15.99v9.712c0 .664-.524 1.214-1.156 1.214-.307 0-.596-.133-.813-.36l-3.18-3.34-11.78 12.37a.609.609 0 0 1-.415.189.609.609 0 0 1-.416-.19l-2.06-2.162a.67.67 0 0 1-.18-.437.67.67 0 0 1 .18-.436L23.96 6.407l-3.18-3.34a1.237 1.237 0 0 1-.343-.853c0-.664.524-1.214 1.156-1.214h9.25C31.477 1 32 1.55 32 2.214Z" id="External-Link" fill="#000" fill-rule="nonzero"/></g></svg>