<svg width="32" height="32" xmlns="http://www.w3.org/2000/svg"><g id="Icons/Edit" stroke="none" stroke-width="1" fill="none" fill-rule="evenodd"><g id="edit" transform="translate(0 2)" fill="#000" fill-rule="nonzero"><path d="m22.367 4.622 5.01 5.011a.543.543 0 0 1 0 .767L15.245 22.533l-5.155.573a1.08 1.08 0 0 1-1.195-1.195l.573-5.155L21.6 4.622a.543.543 0 0 1 .767 0Zm9-1.272L28.656.639a2.173 2.173 0 0 0-3.067 0l-1.967 1.967a.543.543 0 0 0 0 .766l5.011 5.011a.543.543 0 0 0 .767 0l1.967-1.966a2.173 2.173 0 0 0 0-3.067ZM21.333 19.233v5.656H3.556V7.11h12.766a.683.683 0 0 0 .472-.194l2.223-2.223a.667.667 0 0 0-.473-1.138H2.667A2.667 2.667 0 0 0 0 6.222v19.556a2.667 2.667 0 0 0 2.667 2.666h19.555a2.667 2.667 0 0 0 2.667-2.666V17.01c0-.594-.717-.889-1.139-.472l-2.222 2.222a.683.683 0 0 0-.195.472Z" id="Shape"/></g></g></svg>