<svg width="32" height="32" xmlns="http://www.w3.org/2000/svg"><g id="Icons/Favourites/Default" stroke="none" stroke-width="1" fill="none" fill-rule="evenodd"><path d="M28.65 4.02C25.037.983 19.456 1.439 16 4.957 12.544 1.439 6.963.977 3.35 4.02c-4.7 3.955-4.012 10.403-.662 13.82L13.65 29.008A3.277 3.277 0 0 0 16 30a3.26 3.26 0 0 0 2.35-.987l10.962-11.166c3.344-3.418 4.044-9.866-.662-13.827Zm-1.468 11.73L16.217 26.888c-.15.15-.275.15-.425 0L4.828 15.75c-2.282-2.319-2.745-6.707.456-9.393 2.432-2.038 6.182-1.733 8.533.654l2.188 2.225 2.188-2.225c2.363-2.4 6.113-2.692 8.532-.66 3.195 2.686 2.72 7.099.457 9.399Z" id="Shape" fill="#000" fill-rule="nonzero"/></g></svg>