<svg width="32" height="25" xmlns="http://www.w3.org/2000/svg"><g id="Icons/Home" stroke="none" stroke-width="1" fill="none" fill-rule="evenodd"><g id="home" fill="#000" fill-rule="nonzero"><path d="M15.578 6.437 5.37 14.843v9.074c0 .49.397.886.886.886l6.204-.016a.886.886 0 0 0 .881-.886v-5.299c0-.49.397-.886.886-.886h3.544c.489 0 .885.397.885.886v5.295a.886.886 0 0 0 .886.889l6.202.017c.49 0 .886-.397.886-.886v-9.08l-10.205-8.4c-.248-.2-.6-.2-.847 0ZM31.7 12.15l-4.628-3.815V.667a.664.664 0 0 0-.665-.664h-3.1a.664.664 0 0 0-.664.664v4.02L17.687.61a2.657 2.657 0 0 0-3.377 0L.296 12.151a.664.664 0 0 0-.089.935l1.412 1.716a.664.664 0 0 0 .936.09L15.578 4.168c.247-.2.6-.2.847 0l13.023 10.726a.664.664 0 0 0 .935-.089l1.412-1.716a.664.664 0 0 0-.094-.937Z" id="Shape"/></g></g></svg>