<svg width="50" height="50" xmlns="http://www.w3.org/2000/svg"><g id="Buttons/Hotspot/Medium" stroke="none" stroke-width="1" fill="none" fill-rule="evenodd"><circle id="Background" stroke="#FFF" stroke-width="3" fill="#000" cx="25" cy="25" r="23.5"/><g id="Icons/Plus" transform="translate(17 17)" fill="#FFF"><g id="plus"><path d="M14.857 6.286H9.714V1.143C9.714.512 9.203 0 8.571 0H7.43c-.631 0-1.143.512-1.143 1.143v5.143H1.143C.512 6.286 0 6.798 0 7.429V8.57c0 .632.512 1.143 1.143 1.143h5.143v5.143c0 .631.512 1.143 1.143 1.143H8.57c.632 0 1.143-.512 1.143-1.143V9.714h5.143c.631 0 1.143-.511 1.143-1.143V7.43c0-.631-.512-1.143-1.143-1.143Z" id="Path" fill-rule="nonzero"/></g></g></g></svg>