<svg width="32" height="32" xmlns="http://www.w3.org/2000/svg"><g id="Icons/Hamburger-Menu" stroke="none" stroke-width="1" fill="none" fill-rule="evenodd"><g id="bars" transform="translate(0 2)" fill="#000" fill-rule="nonzero"><path d="M1.143 5.143h29.714C31.488 5.143 32 4.63 32 4V1.143C32 .512 31.488 0 30.857 0H1.143C.512 0 0 .512 0 1.143V4c0 .631.512 1.143 1.143 1.143Zm0 11.428h29.714c.631 0 1.143-.511 1.143-1.142V12.57c0-.63-.512-1.142-1.143-1.142H1.143A1.144 1.144 0 0 0 0 12.57v2.858c0 .63.512 1.142 1.143 1.142Zm0 11.429h29.714c.631 0 1.143-.512 1.143-1.143V24c0-.631-.512-1.143-1.143-1.143H1.143C.512 22.857 0 23.37 0 24v2.857C0 27.488.512 28 1.143 28Z" id="Shape"/></g></g></svg>