<svg width="60" height="60" xmlns="http://www.w3.org/2000/svg"><g id="Buttons/Image-Controls/Close" stroke="none" stroke-width="1" fill="none" fill-rule="evenodd"><g id="img-close"><circle id="Oval-3-Copy" fill="#000" fill-rule="nonzero" cx="30" cy="30" r="30"/><text id="Close" font-family="HelveticaNeue-Bold, Helvetica Neue" font-size="12" font-weight="bold" letter-spacing="-.3" fill="#FFF">
                <tspan x="14.774" y="43">Clos</tspan>
                <tspan x="39.338" y="43">e</tspan>
            </text></g><g id="Icons/Close/Default" transform="translate(23 13)" fill="#FFF"><g id="times"><path d="m10.343 7.5 4.265-4.264a1.34 1.34 0 0 0 0-1.896L13.66.392a1.34 1.34 0 0 0-1.896 0L7.5 4.657 3.236.392a1.34 1.34 0 0 0-1.896 0l-.948.948a1.34 1.34 0 0 0 0 1.896L4.657 7.5.392 11.764a1.34 1.34 0 0 0 0 1.896l.948.948a1.34 1.34 0 0 0 1.896 0L7.5 10.343l4.264 4.265a1.34 1.34 0 0 0 1.896 0l.948-.948a1.34 1.34 0 0 0 0-1.896L10.343 7.5Z" id="Path" fill-rule="nonzero"/></g></g></g></svg>