<svg width="60" height="60" xmlns="http://www.w3.org/2000/svg"><g id="Buttons/Image-Controls/Zoom" stroke="none" stroke-width="1" fill="none" fill-rule="evenodd"><g id="img-zoom"><circle id="Oval-3-Copy" fill="#000" fill-rule="nonzero" cx="30" cy="30" r="30"/><text id="Zoom" font-family="HelveticaNeue-Bold, Helvetica Neue" font-size="12" font-weight="bold" letter-spacing="-.3" fill="#FFF">
                <tspan x="14.294" y="43">Zoo</tspan>
                <tspan x="35.834" y="43">m</tspan>
            </text></g><g id="Icons/Zoom" transform="translate(21 11)" fill="#FFF"><g id="search-plus"><path d="M11.26 7.111v1.185c0 .245-.2.445-.445.445H8.74v2.074c0 .244-.2.444-.445.444H7.111a.446.446 0 0 1-.444-.444V8.74H4.593a.446.446 0 0 1-.445-.445V7.111c0-.244.2-.444.445-.444h2.074V4.593c0-.245.2-.445.444-.445h1.185c.245 0 .445.2.445.445v2.074h2.074c.244 0 .444.2.444.444Zm7.444 10.545-1.048 1.048a.885.885 0 0 1-1.256 0l-3.696-3.693a.888.888 0 0 1-.26-.63v-.603a7.666 7.666 0 0 1-4.74 1.63A7.703 7.703 0 0 1 0 7.703 7.703 7.703 0 0 1 7.704 0a7.703 7.703 0 0 1 7.703 7.704 7.666 7.666 0 0 1-1.63 4.74h.604c.238 0 .463.093.63.26l3.693 3.692a.896.896 0 0 1 0 1.26ZM12.74 7.704a5.033 5.033 0 0 0-5.037-5.037 5.033 5.033 0 0 0-5.037 5.037 5.033 5.033 0 0 0 5.037 5.037 5.033 5.033 0 0 0 5.037-5.037Z" id="Shape" fill-rule="nonzero"/></g></g></g></svg>