<svg width="32" height="32" xmlns="http://www.w3.org/2000/svg"><g id="Icons/Live-Chat" stroke="none" stroke-width="1" fill="none" fill-rule="evenodd"><path d="M28.054 1.005c1.822 0 3.4 1.28 3.83 3.05.035.15.08.298.116.447V21.5a.77.77 0 0 0-.054.14c-.297 1.66-1.452 2.938-3.091 3.245-.768.145-1.574.11-2.362.11-4.648.004-9.297.006-13.945.005L6 31v-6.004l-1.96-.001c-1.84 0-3.386-1.164-3.886-2.9C.097 21.901.05 21.7 0 21.5V4.501c.025-.066.046-.134.063-.203.33-1.883 1.968-3.29 3.882-3.293 8.037-.007 16.073-.007 24.11 0Z" id="Speech-Bubble-Icon" fill="#000" fill-rule="nonzero"/></g></svg>