<svg width="32" height="32" xmlns="http://www.w3.org/2000/svg"><g id="Icons/Plus" stroke="none" stroke-width="1" fill="none" fill-rule="evenodd"><g id="plus" fill="#000" fill-rule="nonzero"><path d="M29.714 12.571H19.43V2.286A2.286 2.286 0 0 0 17.143 0h-2.286a2.286 2.286 0 0 0-2.286 2.286V12.57H2.286A2.286 2.286 0 0 0 0 14.857v2.286a2.286 2.286 0 0 0 2.286 2.286H12.57v10.285A2.286 2.286 0 0 0 14.857 32h2.286a2.286 2.286 0 0 0 2.286-2.286V19.43h10.285A2.286 2.286 0 0 0 32 17.143v-2.286a2.286 2.286 0 0 0-2.286-2.286Z" id="Path"/></g></g></svg>