<svg width="32" height="32" xmlns="http://www.w3.org/2000/svg"><g id="Icons/Refresh" stroke="none" stroke-width="1" fill="none" fill-rule="evenodd"><g id="redo-alt" fill="#000" fill-rule="nonzero"><path d="M16.03 0a15.946 15.946 0 0 1 11.023 4.431l2.304-2.304C30.332 1.152 32 1.843 32 3.222v8.649c0 .855-.693 1.548-1.548 1.548h-8.65c-1.379 0-2.07-1.667-1.094-2.643L23.4 8.083a10.76 10.76 0 0 0-7.305-2.921C10.135 5.11 5.11 9.934 5.162 16.093 5.21 21.936 9.947 26.84 16 26.84c2.653 0 5.161-.947 7.137-2.681a.773.773 0 0 1 1.056.035l2.56 2.56a.776.776 0 0 1-.032 1.124A15.941 15.941 0 0 1 16 32C7.163 32 0 24.837 0 16 0 7.174 7.203-.016 16.03 0Z" id="Path"/></g></g></svg>