<svg width="50" height="50" xmlns="http://www.w3.org/2000/svg"><g id="Buttons/Search/Medium" stroke="none" stroke-width="1" fill="none" fill-rule="evenodd"><path id="Rectangle" fill="#363C48" fill-rule="nonzero" transform="matrix(-1 0 0 1 50 0)" d="M0 0h50v50H0z"/><g id="Icons/Search" transform="translate(15 16)" fill="#FFF"><g id="search"><path d="m19.129 16.769-3.777-3.777a.908.908 0 0 0-.644-.265h-.617a7.84 7.84 0 0 0 1.667-4.848A7.878 7.878 0 0 0 7.878 0 7.878 7.878 0 0 0 0 7.879a7.878 7.878 0 0 0 7.879 7.879 7.84 7.84 0 0 0 4.848-1.667v.617c0 .243.095.474.265.644l3.777 3.777a.905.905 0 0 0 1.284 0l1.072-1.072a.913.913 0 0 0 .004-1.288Zm-11.25-4.042A4.846 4.846 0 0 1 3.03 7.88a4.846 4.846 0 0 1 4.85-4.85 4.846 4.846 0 0 1 4.848 4.849 4.846 4.846 0 0 1-4.848 4.848Z" id="Shape" fill-rule="nonzero"/></g></g></g></svg>