<svg id="search" viewBox="0 0 32 32" version="1.1" xmlns="http://www.w3.org/2000/svg"><g fill="currentColor"><path d="m30.606 26.83-6.042-6.042a1.453 1.453 0 0 0-1.03-.424h-.989a12.544 12.544 0 0 0 2.667-7.758C25.212 5.642 19.57 0 12.606 0 5.642 0 0 5.642 0 12.606c0 6.964 5.642 12.606 12.606 12.606 2.927 0 5.618-.994 7.758-2.667v.988c0 .388.151.758.424 1.03l6.042 6.043c.57.57 1.491.57 2.055 0l1.715-1.715c.57-.57.57-1.491.006-2.06Zm-18-6.466a7.753 7.753 0 0 1-7.758-7.758 7.753 7.753 0 0 1 7.758-7.758 7.753 7.753 0 0 1 7.758 7.758 7.753 7.753 0 0 1-7.758 7.758Z" id="Shape"/></g></svg>