<svg width="32" height="32" xmlns="http://www.w3.org/2000/svg"><g id="Icons/Tick/Square" stroke="none" stroke-width="1" fill="none" fill-rule="evenodd"><g id="check-square" fill="#000" fill-rule="nonzero"><path d="M28.571 0H3.43A3.429 3.429 0 0 0 0 3.429V28.57A3.429 3.429 0 0 0 3.429 32H28.57A3.429 3.429 0 0 0 32 28.571V3.43A3.429 3.429 0 0 0 28.571 0Zm0 28.571H3.43V3.43h25.14v25.14ZM26.01 11.305l-12.328 12.23a.857.857 0 0 1-1.212-.006l-6.485-6.536a.857.857 0 0 1 .005-1.213l1.623-1.61a.857.857 0 0 1 1.212.006l4.271 4.305L23.193 8.466a.857.857 0 0 1 1.212.005l1.61 1.622a.857.857 0 0 1-.005 1.212Z" id="Shape"/></g></g></svg>