<svg width="32" height="32" xmlns="http://www.w3.org/2000/svg"><g id="Icons/Tick/Bullet" stroke="none" stroke-width="1" fill="none" fill-rule="evenodd"><g id="check-circle" fill="#000" fill-rule="nonzero"><path d="M16 0C7.163 0 0 7.163 0 16s7.163 16 16 16 16-7.163 16-16S24.837 0 16 0Zm0 3.097c7.131 0 12.903 5.77 12.903 12.903 0 7.131-5.77 12.903-12.903 12.903-7.131 0-12.903-5.77-12.903-12.903C3.097 8.869 8.867 3.097 16 3.097Zm9.045 8.404-1.454-1.466a.774.774 0 0 0-1.094-.004l-9.12 9.046-3.857-3.889a.774.774 0 0 0-1.095-.004l-1.466 1.454a.774.774 0 0 0-.004 1.095l5.856 5.904a.774.774 0 0 0 1.095.004l11.135-11.045a.774.774 0 0 0 .004-1.095Z" id="Shape"/></g></g></svg>