<svg width="32" height="32" xmlns="http://www.w3.org/2000/svg"><g id="Icons/Virtual-Advisor" stroke="none" stroke-width="1" fill="none" fill-rule="evenodd"><g id="Virtual-Adviser-Robot-Icon"><path d="M10.105 8.421h11.79a6.737 6.737 0 0 1 6.737 6.737v13.474A3.368 3.368 0 0 1 25.263 32H6.737a3.368 3.368 0 0 1-3.369-3.368V15.158a6.737 6.737 0 0 1 6.737-6.737Z" id="Rectangle" fill="#000"/><rect id="Rectangle-9" stroke="#000" stroke-width="1.684" x=".842" y="19.368" width="6.737" height="5.053" rx="2.526"/><rect id="Rectangle-9-Copy" stroke="#000" stroke-width="1.684" x="24.421" y="19.368" width="6.737" height="5.053" rx="2.526"/><path id="Rectangle-4" fill="#FFF" d="M10.105 22.737h11.789v3.368H10.105z"/><path d="M11.79 13.474a2.947 2.947 0 1 1 0 5.894 2.947 2.947 0 0 1 0-5.894Zm8.42 0a2.947 2.947 0 1 1 0 5.894 2.947 2.947 0 0 1 0-5.894Z" id="Combined-Shape" fill="#FFF"/><circle id="Oval-Copy" fill="#000" cx="15.579" cy="2.947" r="2.947"/><path id="Rectangle-2" fill="#000" d="M13.895 5.053h3.368v6.737h-3.368z"/></g></g></svg>