<svg width="32" height="32" xmlns="http://www.w3.org/2000/svg"><g id="Icons/Warning" stroke="none" stroke-width="1" fill="none" fill-rule="evenodd"><g id="exclamation-triangle" transform="translate(0 2)" fill="#000" fill-rule="nonzero"><path d="M31.64 24.445c1.025 1.778-.262 4-2.31 4H2.67c-2.052 0-3.334-2.226-2.31-4L13.69 1.332c1.026-1.778 3.596-1.775 4.62 0l13.33 23.113ZM16 19.667a2.556 2.556 0 1 0 0 5.11 2.556 2.556 0 0 0 0-5.11Zm-2.426-9.186.412 7.555c.02.354.311.63.665.63h2.698a.667.667 0 0 0 .665-.63l.412-7.555a.667.667 0 0 0-.665-.703h-3.522a.667.667 0 0 0-.665.703Z" id="Shape"/></g></g></svg>