<svg width="32" height="32" xmlns="http://www.w3.org/2000/svg"><g id="Icons/Web-Enquiry" stroke="none" stroke-width="1" fill="none" fill-rule="evenodd"><path d="M0 22.058V4.648c.025-.068.046-.138.063-.208.33-1.928 1.968-3.37 3.882-3.372 8.037-.007 16.073-.007 24.11 0 1.821 0 3.4 1.31 3.828 3.124.036.153.08.305.117.457v17.409a.8.8 0 0 0-.054.144c-.297 1.7-1.452 3.008-3.091 3.323-.768.148-1.574.111-2.362.112-7.484.007-14.969.007-22.454 0-1.84 0-3.385-1.192-3.885-2.97-.057-.198-.103-.404-.154-.61Z" id="Shape" fill="#000" fill-rule="nonzero"/><path id="Rectangle-12" fill="#FFF" d="M3.556 4.529h24.889v15.882H3.556z"/><path id="Rectangle-11" fill="#000" d="M12.444 23.941h7.112L23.11 31H8.89z"/></g></svg>